<svg version="1.1" id="Layer_1" xmlns="http://www.w3.org/2000/svg" xmlns:xlink="http://www.w3.org/1999/xlink" x="0px" y="0px"
	 width="100%" viewBox="0 0 2000 1500" enable-background="new 0 0 2000 1500" xml:space="preserve">
<path fill="#212426" opacity="1.000000" stroke="none" 
	d="
M1886.000000,1501.000000 
	C1257.333496,1501.000000 629.167053,1501.000000 1.000421,1501.000000 
	C1.000281,1001.000366 1.000281,501.000671 1.000140,1.000757 
	C667.666138,1.000504 1334.332275,1.000504 2000.998779,1.000252 
	C2000.999268,500.999298 2000.999268,1000.998596 2000.999634,1500.999023 
	C1962.833374,1501.000000 1924.666626,1501.000000 1886.000000,1501.000000 
M270.840485,814.682922 
	C297.681000,860.464111 348.513336,885.243225 400.331390,877.805664 
	C470.860077,867.682434 519.529724,802.219910 509.188507,731.388550 
	C498.658630,659.265076 428.324799,609.746765 357.169891,624.360229 
	C270.846924,642.088745 227.462021,737.000732 270.840485,814.682922 
M1580.720459,815.103088 
	C1581.151123,798.447449 1581.540649,781.790710 1582.020996,765.136475 
	C1582.990845,731.513306 1584.001831,697.891418 1585.017578,664.269653 
	C1585.162720,659.462585 1583.821899,658.193054 1579.031250,659.281921 
	C1569.781006,661.384521 1560.626709,663.967529 1551.312012,665.705078 
	C1546.311279,666.637939 1544.063965,669.222656 1543.469116,673.843811 
	C1543.236572,675.650696 1543.136230,677.486694 1543.134644,679.309509 
	C1543.113770,705.138794 1543.124756,730.968140 1543.109741,756.797424 
	C1543.108765,758.513245 1542.958740,760.228943 1542.810547,763.375610 
	C1541.137939,760.553711 1540.192871,759.046326 1539.331177,757.492737 
	C1521.726318,725.748474 1504.135132,693.996704 1486.530029,662.252686 
	C1483.475952,656.745850 1481.833496,656.280212 1476.236572,659.411194 
	C1468.243530,663.882385 1460.279175,668.404846 1452.311401,672.921021 
	C1440.791382,679.450623 1442.513672,677.781677 1447.888672,688.285217 
	C1449.956421,692.325623 1452.719116,696.748657 1452.694824,700.983276 
	C1452.621704,713.789856 1451.478882,726.600403 1450.499023,739.389832 
	C1448.017456,771.777161 1445.372681,804.151917 1442.854126,836.536377 
	C1442.366943,842.800049 1444.362427,844.520020 1450.492554,842.593811 
	C1459.535522,839.752258 1468.387817,836.307190 1477.410400,833.395874 
	C1481.425903,832.100281 1483.234009,829.948120 1483.512085,825.594910 
	C1484.828491,804.981445 1486.438599,784.386719 1487.959717,763.786438 
	C1488.057739,762.459778 1488.288208,761.142944 1488.628906,758.475159 
	C1507.544556,787.546753 1525.661255,815.390381 1544.078613,843.696289 
	C1555.356079,836.779663 1566.246704,830.374756 1576.767578,823.411316 
	C1578.823608,822.050476 1579.445801,818.523499 1580.720459,815.103088 
M803.341858,780.140991 
	C792.198120,768.038025 781.054443,755.935059 769.479553,743.363708 
	C797.498352,720.666077 818.343201,691.820251 841.210327,664.495239 
	C839.293274,663.561951 837.867493,663.199890 836.479675,663.310974 
	C820.374817,664.601746 804.280273,666.024414 788.171387,667.260071 
	C784.605225,667.533569 782.117737,668.829041 779.840088,671.733765 
	C769.971924,684.318848 759.856689,696.710999 749.765320,709.119629 
	C747.932068,711.373779 745.790222,713.377014 742.970825,716.365234 
	C742.970825,713.644531 742.881531,712.215576 742.984680,710.800598 
	C744.086853,695.682983 745.233093,680.568481 746.337524,665.450989 
	C746.809570,658.989990 745.597107,657.926208 739.375488,659.402100 
	C726.906555,662.359863 714.485046,665.529541 701.969910,668.274353 
	C697.625793,669.227051 696.096069,671.207031 695.816895,675.663696 
	C693.786194,708.083374 691.513794,740.488098 689.240967,772.892273 
	C687.725830,794.493469 686.065979,816.084595 684.513794,837.683228 
	C684.181580,842.306274 685.781311,843.793152 690.378967,843.221985 
	C691.847290,843.039551 693.307861,842.598755 694.708496,842.098511 
	C705.678772,838.180176 716.595825,834.108032 727.617065,830.340210 
	C730.790955,829.255188 732.024597,827.562134 732.268127,824.260864 
	C733.395020,808.979248 734.828064,793.720276 735.960693,778.439087 
	C736.217163,774.978088 737.167664,772.411133 741.004517,771.022400 
	C753.148743,786.492554 765.231506,801.980103 777.428284,817.377319 
	C782.802979,824.162354 788.360107,830.805176 793.927734,837.434204 
	C797.589661,841.794434 802.092896,843.085815 807.271790,840.239868 
	C816.884827,834.957336 826.453125,829.593018 836.012451,824.213684 
	C837.715332,823.255371 839.284973,822.060303 840.916138,820.974487 
	C839.628540,821.487976 838.340942,822.001404 837.053284,822.514893 
	C834.030579,817.900513 831.384949,812.977173 827.908508,808.734619 
	C820.096130,799.200806 811.871582,790.004761 803.341858,780.140991 
M1728.683716,834.206543 
	C1734.989014,832.559998 1737.171509,828.554077 1736.819580,822.062683 
	C1736.360474,813.595825 1736.844849,805.079895 1736.823242,796.585327 
	C1736.818848,794.880066 1736.366089,793.175903 1736.053711,791.011169 
	C1734.166016,791.738220 1732.885010,792.073853 1731.757690,792.690430 
	C1720.806274,798.679626 1708.974854,800.623047 1696.643433,800.952637 
	C1681.946899,801.345276 1671.429565,794.754639 1665.530762,781.789368 
	C1656.744751,762.478149 1656.318604,742.671265 1665.721680,723.390564 
	C1672.404663,709.687256 1683.689941,701.932129 1699.135254,700.554260 
	C1711.800903,699.424316 1722.511963,704.509338 1732.933350,710.732849 
	C1736.067261,712.604309 1739.165161,714.665649 1742.537842,715.974609 
	C1746.835449,717.642456 1748.398315,716.381897 1748.229980,711.803589 
	C1747.881348,702.318665 1746.607422,692.799194 1747.120850,683.370605 
	C1747.622803,674.153931 1742.984619,669.702393 1735.541992,666.588989 
	C1734.928711,666.332458 1734.326294,666.043274 1733.698730,665.828064 
	C1699.262207,654.023376 1666.647217,657.012695 1638.315308,680.806152 
	C1609.197876,705.259338 1599.949707,737.788635 1606.933105,774.488708 
	C1613.090210,806.846985 1631.822998,829.620728 1664.207520,838.550354 
	C1685.568481,844.440369 1707.130127,842.231140 1728.683716,834.206543 
M1288.326782,769.282166 
	C1283.946533,756.515869 1274.767090,747.757080 1264.030029,740.349670 
	C1254.848267,734.015137 1245.621094,727.744446 1236.340088,721.556274 
	C1230.520020,717.675659 1230.103149,711.918945 1231.128296,706.012878 
	C1232.115723,700.323303 1236.689087,698.069763 1241.881226,697.005127 
	C1251.172485,695.099854 1259.869507,696.841431 1267.599243,702.169250 
	C1272.230957,705.361816 1276.229736,709.458984 1280.694458,712.915222 
	C1282.111816,714.012390 1284.114258,714.353882 1285.848877,715.041199 
	C1286.370972,713.265137 1287.387451,711.473938 1287.333618,709.715515 
	C1287.017822,699.396057 1285.962402,689.076050 1286.134888,678.772583 
	C1286.259033,671.349976 1283.003784,667.480896 1276.561523,664.923096 
	C1263.203735,659.619690 1249.447754,658.384277 1235.359375,660.440674 
	C1223.013062,662.242859 1211.421021,666.234192 1201.227295,673.628296 
	C1187.018311,683.934998 1179.870850,697.564026 1180.439209,715.497681 
	C1180.930908,731.014954 1184.562134,744.823669 1197.018555,755.083191 
	C1207.172729,763.446594 1217.364258,771.770081 1227.715210,779.886658 
	C1232.312866,783.491882 1236.299927,787.486511 1234.675903,793.636169 
	C1233.094482,799.624695 1227.362427,800.784485 1222.105103,802.002441 
	C1221.783203,802.077026 1221.442505,802.067871 1221.112061,802.108826 
	C1208.246948,803.701965 1197.222656,799.522705 1187.310547,791.552795 
	C1185.634766,790.205322 1183.401367,789.551147 1181.425659,788.576599 
	C1181.149292,790.764282 1180.573120,792.962158 1180.647827,795.137817 
	C1181.001465,805.456787 1181.591187,815.767517 1181.982178,826.085510 
	C1182.291504,834.251404 1182.202026,834.296143 1189.842407,837.173645 
	C1202.308228,841.868408 1215.359375,841.720215 1228.330688,841.237732 
	C1244.713989,840.628357 1259.185425,834.457458 1271.508057,823.811157 
	C1288.090088,809.485046 1294.468506,791.625244 1288.326782,769.282166 
M615.076172,724.444336 
	C614.111511,723.789429 613.142578,723.140686 612.182861,722.478516 
	C606.225525,718.367004 603.738953,712.623047 605.383057,706.196228 
	C607.046265,699.694580 612.081116,697.376465 618.095764,696.809998 
	C621.540955,696.485474 625.097107,696.395996 628.511963,696.865356 
	C639.562561,698.384399 647.306213,705.551697 655.020386,712.782776 
	C656.308655,713.990295 658.396973,714.344238 660.115662,715.092590 
	C660.721008,713.360291 661.899109,711.607544 661.838257,709.898926 
	C661.458862,699.242554 660.311035,688.591675 660.409485,677.948059 
	C660.475647,670.800171 657.081299,667.398071 651.125977,664.996582 
	C636.279846,659.009949 620.984131,658.007812 605.490356,661.205261 
	C577.840332,666.911438 548.124329,684.366821 555.921448,727.863892 
	C557.919739,739.011658 563.123352,748.208679 571.799438,755.375488 
	C581.818420,763.651672 591.994995,771.736877 602.076782,779.937378 
	C603.749023,781.297546 605.521851,782.636841 606.844177,784.305847 
	C611.335510,789.974548 610.100708,796.847656 603.511230,799.560486 
	C599.181641,801.342773 594.211121,802.188843 589.500610,802.298889 
	C578.872070,802.547180 569.849854,798.047729 561.677917,791.502808 
	C560.020142,790.175232 557.758728,789.601318 555.775635,788.679932 
	C555.511108,790.738586 554.955200,792.808044 555.030823,794.854126 
	C555.430847,805.677734 556.354004,816.495789 556.343079,827.315063 
	C556.337463,832.896912 558.884888,835.253906 563.559753,836.986084 
	C576.557129,841.801880 590.070557,841.845703 603.547424,841.170349 
	C621.028564,840.294373 636.130066,833.227051 648.763550,821.246582 
	C658.383057,812.124329 664.366882,801.036743 665.089478,787.463318 
	C666.097656,768.527771 657.485291,754.421875 642.824402,743.575500 
	C633.991821,737.040894 624.733337,731.082031 615.076172,724.444336 
M1326.210815,666.813904 
	C1320.966553,668.932739 1315.700317,670.998840 1310.483398,673.182922 
	C1302.777344,676.409180 1302.172607,678.300659 1305.823486,686.086914 
	C1316.984375,709.888977 1328.150391,733.689087 1339.139893,757.570312 
	C1340.167603,759.803467 1340.571045,762.689880 1340.231567,765.129272 
	C1337.018677,788.204712 1333.470947,811.233582 1330.265259,834.309998 
	C1329.026489,843.227783 1332.223877,845.436401 1340.810181,842.167969 
	C1342.050415,841.695862 1343.265503,841.136047 1344.442139,840.521179 
	C1354.619019,835.202698 1364.720215,829.733948 1374.987061,824.596375 
	C1378.702271,822.737366 1380.412354,820.030823 1380.937012,816.106262 
	C1381.906982,808.849121 1383.380371,801.643311 1384.020996,794.361267 
	C1385.575195,776.692627 1389.835205,760.027771 1400.258179,745.303955 
	C1402.360107,742.334717 1403.854980,738.932251 1405.594116,735.710327 
	C1417.372925,713.889343 1429.188354,692.087769 1440.838501,670.198181 
	C1441.921143,668.163940 1441.936646,665.561768 1442.447632,663.223328 
	C1440.130859,663.114929 1437.691895,662.480774 1435.517578,662.986023 
	C1424.015137,665.658325 1412.610107,668.752197 1401.101807,671.397278 
	C1397.509766,672.222839 1395.326172,674.003967 1393.628174,677.180054 
	C1388.686035,686.424683 1383.492676,695.535034 1378.416626,704.708435 
	C1376.126343,708.847656 1373.880249,713.011475 1371.267212,717.799866 
	C1369.988403,715.536011 1369.055664,714.003479 1368.234985,712.413208 
	C1360.451050,697.329041 1352.711670,682.221802 1344.901489,667.151245 
	C1342.278198,662.089478 1340.111938,661.332520 1334.800293,663.361755 
	C1332.158813,664.370972 1329.544312,665.450928 1326.210815,666.813904 
M945.808777,678.223022 
	C943.118103,716.082520 940.330444,753.935547 937.785461,791.804871 
	C936.802551,806.430908 936.020081,821.013855 928.085815,834.002747 
	C928.001587,834.140686 927.987671,834.320068 927.931335,834.476624 
	C925.793762,840.417236 926.486755,841.569336 932.951294,841.398315 
	C961.745972,840.636841 990.537048,839.741028 1019.330139,838.917969 
	C1027.036743,838.697632 1032.226440,835.103760 1034.702515,827.730835 
	C1036.926147,821.109741 1039.155518,814.490479 1041.392700,807.873962 
	C1044.762573,797.907837 1044.050537,797.104797 1033.389282,798.258850 
	C1018.828186,799.835327 1004.257019,801.319214 989.685669,802.798645 
	C988.129395,802.956604 986.543213,802.819885 984.572998,802.819885 
	C985.220398,794.564880 985.742554,786.938538 986.428101,779.326843 
	C989.862366,741.199158 993.363525,703.077515 996.777771,664.948059 
	C997.347168,658.588989 996.286438,657.709473 990.163086,659.145081 
	C978.018066,661.992371 965.898376,664.947266 953.763367,667.837402 
	C946.325317,669.608765 946.321289,669.591797 945.808777,678.223022 
M1051.673462,831.160950 
	C1051.236328,832.240173 1050.767456,833.307739 1050.367310,834.400513 
	C1048.152832,840.449585 1048.771362,841.554871 1055.184204,841.387085 
	C1084.145874,840.629395 1113.104492,839.752991 1142.063110,838.882263 
	C1149.531128,838.657837 1154.611450,835.111816 1157.016724,827.887573 
	C1159.643433,819.998291 1162.412109,812.156128 1165.032959,804.264954 
	C1166.817993,798.890076 1165.924561,797.608704 1160.068481,798.038025 
	C1151.439941,798.670471 1142.839355,799.683350 1134.226685,800.530823 
	C1125.339722,801.405334 1116.452515,802.275696 1107.121216,803.191528 
	C1107.121216,801.612915 1107.048340,800.653625 1107.132080,799.708252 
	C1108.569946,783.458984 1110.035522,767.212158 1111.478027,750.963318 
	C1114.024170,722.282166 1116.619385,693.605042 1119.052368,664.914307 
	C1119.615845,658.271240 1118.696533,657.689392 1112.059448,659.260986 
	C1100.082397,662.097229 1088.119629,664.992859 1076.146606,667.846191 
	C1068.669800,669.628052 1068.680420,669.614685 1068.139526,677.349976 
	C1065.376221,716.872192 1062.600586,756.393616 1059.839478,795.915955 
	C1059.006714,807.837585 1058.990723,819.940857 1051.673462,831.160950 
M886.770935,836.184570 
	C890.281067,835.154114 893.752869,833.957947 897.311218,833.135925 
	C901.592834,832.146667 902.915649,829.623962 903.250061,825.321472 
	C905.611755,794.933899 908.331848,764.574341 910.783020,734.193420 
	C912.617554,711.454285 914.234314,688.697510 915.919678,665.946472 
	C916.418274,659.216675 915.296875,658.164185 909.211975,659.612183 
	C896.259888,662.694458 883.347229,665.950134 870.355530,668.853516 
	C866.722168,669.665527 865.328674,671.595642 865.114258,674.986206 
	C864.777832,680.305725 864.393494,685.622375 864.003784,690.938293 
	C861.470459,725.491943 858.931946,760.045227 856.391296,794.598328 
	C855.340820,808.884827 854.321350,823.173889 853.201172,837.454956 
	C852.863281,841.762451 854.604065,843.814880 858.942810,843.340149 
	C860.916870,843.124207 862.895752,842.765381 864.813110,842.250549 
	C871.883179,840.352234 878.928406,838.361633 886.770935,836.184570 
z"/>
<path fill="#1E6FEA" opacity="1.000000" stroke="none" 
	d="
M270.648499,814.371826 
	C227.462021,737.000732 270.846924,642.088745 357.169891,624.360229 
	C428.324799,609.746765 498.658630,659.265076 509.188507,731.388550 
	C519.529724,802.219910 470.860077,867.682434 400.331390,877.805664 
	C348.513336,885.243225 297.681000,860.464111 270.648499,814.371826 
M463.279449,775.251465 
	C456.821259,766.838135 450.363098,758.424744 443.791779,749.864014 
	C446.888672,746.485046 451.000824,742.913208 453.963989,738.559326 
	C458.886993,731.325684 464.144653,724.011230 467.307281,715.962952 
	C471.644958,704.924316 466.492981,696.173706 454.790710,694.034058 
	C447.566315,692.713074 439.891052,693.034912 432.506073,693.658997 
	C425.824860,694.223694 419.262848,696.199524 412.545685,697.574036 
	C412.070038,696.045776 411.631897,694.799683 411.295135,693.526794 
	C410.138275,689.154114 408.897430,685.335449 411.747681,680.471802 
	C415.753448,673.636475 410.634949,664.795654 402.557800,663.481079 
	C399.141937,662.925110 396.949829,661.494141 394.681610,659.138062 
	C386.439453,650.576538 376.897156,650.411743 369.263214,659.579346 
	C364.660614,665.106628 361.174194,671.746704 358.109039,678.317200 
	C355.253082,684.439270 353.618378,691.131042 351.358032,697.833191 
	C349.421387,697.312561 347.523163,696.773071 345.610107,696.292847 
	C335.062164,693.645203 324.429932,691.770203 313.487274,693.004578 
	C298.350250,694.712097 291.720123,704.846069 297.878540,718.681030 
	C301.337524,726.451782 306.839966,733.369324 311.833801,740.377563 
	C314.471924,744.080017 317.993195,747.153076 321.060425,750.450745 
	C317.657990,754.880127 314.675354,758.003479 308.448944,756.056763 
	C303.669891,754.562622 299.388306,757.498474 296.711334,761.827454 
	C294.143585,765.979736 293.720337,770.684082 296.515442,774.578552 
	C298.841522,777.819519 298.359497,780.282593 297.206360,783.587952 
	C292.853394,796.065247 297.603027,804.632568 310.516327,807.350464 
	C314.856628,808.263916 319.514069,808.644470 323.902161,808.154480 
	C333.123260,807.124817 342.261993,805.357300 351.765106,803.839844 
	C353.024750,807.923279 354.315369,812.553711 355.881012,817.089233 
	C359.104309,826.426941 362.955048,835.479492 370.159546,842.559875 
	C377.769928,850.039368 386.625641,850.295044 393.901062,842.560608 
	C397.933624,838.273804 401.402924,833.128357 403.888885,827.793396 
	C407.515717,820.010132 410.028870,811.707886 413.116608,803.356873 
	C416.732056,804.211853 420.699005,804.828186 424.411926,806.155273 
	C426.457275,806.886353 428.646881,808.457458 429.771423,810.270203 
	C432.360321,814.443420 435.692535,816.928284 440.609467,817.179382 
	C445.751068,817.441956 449.407043,815.094910 452.412018,811.011169 
	C453.843689,809.065491 455.912506,807.211792 458.102753,806.268250 
	C466.302490,802.735901 469.990112,796.766846 468.104370,787.992188 
	C467.209564,783.828552 465.187775,779.907166 463.279449,775.251465 
z"/>
<path fill="#1E6FEA" opacity="1.000000" stroke="none" 
	d="
M1580.724854,815.549316 
	C1579.445801,818.523499 1578.823608,822.050476 1576.767578,823.411316 
	C1566.246704,830.374756 1555.356079,836.779663 1544.078613,843.696289 
	C1525.661255,815.390381 1507.544556,787.546753 1488.628906,758.475159 
	C1488.288208,761.142944 1488.057739,762.459778 1487.959717,763.786438 
	C1486.438599,784.386719 1484.828491,804.981445 1483.512085,825.594910 
	C1483.234009,829.948120 1481.425903,832.100281 1477.410400,833.395874 
	C1468.387817,836.307190 1459.535522,839.752258 1450.492554,842.593811 
	C1444.362427,844.520020 1442.366943,842.800049 1442.854126,836.536377 
	C1445.372681,804.151917 1448.017456,771.777161 1450.499023,739.389832 
	C1451.478882,726.600403 1452.621704,713.789856 1452.694824,700.983276 
	C1452.719116,696.748657 1449.956421,692.325623 1447.888672,688.285217 
	C1442.513672,677.781677 1440.791382,679.450623 1452.311401,672.921021 
	C1460.279175,668.404846 1468.243530,663.882385 1476.236572,659.411194 
	C1481.833496,656.280212 1483.475952,656.745850 1486.530029,662.252686 
	C1504.135132,693.996704 1521.726318,725.748474 1539.331177,757.492737 
	C1540.192871,759.046326 1541.137939,760.553711 1542.810547,763.375610 
	C1542.958740,760.228943 1543.108765,758.513245 1543.109741,756.797424 
	C1543.124756,730.968140 1543.113770,705.138794 1543.134644,679.309509 
	C1543.136230,677.486694 1543.236572,675.650696 1543.469116,673.843811 
	C1544.063965,669.222656 1546.311279,666.637939 1551.312012,665.705078 
	C1560.626709,663.967529 1569.781006,661.384521 1579.031250,659.281921 
	C1583.821899,658.193054 1585.162720,659.462585 1585.017578,664.269653 
	C1584.001831,697.891418 1582.990845,731.513306 1582.020996,765.136475 
	C1581.540649,781.790710 1581.151123,798.447449 1580.724854,815.549316 
z"/>
<path fill="#1E70EA" opacity="1.000000" stroke="none" 
	d="
M803.578308,780.406128 
	C811.871582,790.004761 820.096130,799.200806 827.908508,808.734619 
	C831.384949,812.977173 834.030579,817.900513 837.053284,822.514893 
	C838.340942,822.001404 839.628540,821.487976 840.916138,820.974487 
	C839.284973,822.060303 837.715332,823.255371 836.012451,824.213684 
	C826.453125,829.593018 816.884827,834.957336 807.271790,840.239868 
	C802.092896,843.085815 797.589661,841.794434 793.927734,837.434204 
	C788.360107,830.805176 782.802979,824.162354 777.428284,817.377319 
	C765.231506,801.980103 753.148743,786.492554 741.004517,771.022400 
	C737.167664,772.411133 736.217163,774.978088 735.960693,778.439087 
	C734.828064,793.720276 733.395020,808.979248 732.268127,824.260864 
	C732.024597,827.562134 730.790955,829.255188 727.617065,830.340210 
	C716.595825,834.108032 705.678772,838.180176 694.708496,842.098511 
	C693.307861,842.598755 691.847290,843.039551 690.378967,843.221985 
	C685.781311,843.793152 684.181580,842.306274 684.513794,837.683228 
	C686.065979,816.084595 687.725830,794.493469 689.240967,772.892273 
	C691.513794,740.488098 693.786194,708.083374 695.816895,675.663696 
	C696.096069,671.207031 697.625793,669.227051 701.969910,668.274353 
	C714.485046,665.529541 726.906555,662.359863 739.375488,659.402100 
	C745.597107,657.926208 746.809570,658.989990 746.337524,665.450989 
	C745.233093,680.568481 744.086853,695.682983 742.984680,710.800598 
	C742.881531,712.215576 742.970825,713.644531 742.970825,716.365234 
	C745.790222,713.377014 747.932068,711.373779 749.765320,709.119629 
	C759.856689,696.710999 769.971924,684.318848 779.840088,671.733765 
	C782.117737,668.829041 784.605225,667.533569 788.171387,667.260071 
	C804.280273,666.024414 820.374817,664.601746 836.479675,663.310974 
	C837.867493,663.199890 839.293274,663.561951 841.210327,664.495239 
	C818.343201,691.820251 797.498352,720.666077 769.479553,743.363708 
	C781.054443,755.935059 792.198120,768.038025 803.578308,780.406128 
z"/>
<path fill="#1E70EA" opacity="1.000000" stroke="none" 
	d="
M1728.341797,834.377808 
	C1707.130127,842.231140 1685.568481,844.440369 1664.207520,838.550354 
	C1631.822998,829.620728 1613.090210,806.846985 1606.933105,774.488708 
	C1599.949707,737.788635 1609.197876,705.259338 1638.315308,680.806152 
	C1666.647217,657.012695 1699.262207,654.023376 1733.698730,665.828064 
	C1734.326294,666.043274 1734.928711,666.332458 1735.541992,666.588989 
	C1742.984619,669.702393 1747.622803,674.153931 1747.120850,683.370605 
	C1746.607422,692.799194 1747.881348,702.318665 1748.229980,711.803589 
	C1748.398315,716.381897 1746.835449,717.642456 1742.537842,715.974609 
	C1739.165161,714.665649 1736.067261,712.604309 1732.933350,710.732849 
	C1722.511963,704.509338 1711.800903,699.424316 1699.135254,700.554260 
	C1683.689941,701.932129 1672.404663,709.687256 1665.721680,723.390564 
	C1656.318604,742.671265 1656.744751,762.478149 1665.530762,781.789368 
	C1671.429565,794.754639 1681.946899,801.345276 1696.643433,800.952637 
	C1708.974854,800.623047 1720.806274,798.679626 1731.757690,792.690430 
	C1732.885010,792.073853 1734.166016,791.738220 1736.053711,791.011169 
	C1736.366089,793.175903 1736.818848,794.880066 1736.823242,796.585327 
	C1736.844849,805.079895 1736.360474,813.595825 1736.819580,822.062683 
	C1737.171509,828.554077 1734.989014,832.559998 1728.341797,834.377808 
z"/>
<path fill="#1E70EA" opacity="1.000000" stroke="none" 
	d="
M1288.480713,769.651367 
	C1294.468506,791.625244 1288.090088,809.485046 1271.508057,823.811157 
	C1259.185425,834.457458 1244.713989,840.628357 1228.330688,841.237732 
	C1215.359375,841.720215 1202.308228,841.868408 1189.842407,837.173645 
	C1182.202026,834.296143 1182.291504,834.251404 1181.982178,826.085510 
	C1181.591187,815.767517 1181.001465,805.456787 1180.647827,795.137817 
	C1180.573120,792.962158 1181.149292,790.764282 1181.425659,788.576599 
	C1183.401367,789.551147 1185.634766,790.205322 1187.310547,791.552795 
	C1197.222656,799.522705 1208.246948,803.701965 1221.112061,802.108826 
	C1221.442505,802.067871 1221.783203,802.077026 1222.105103,802.002441 
	C1227.362427,800.784485 1233.094482,799.624695 1234.675903,793.636169 
	C1236.299927,787.486511 1232.312866,783.491882 1227.715210,779.886658 
	C1217.364258,771.770081 1207.172729,763.446594 1197.018555,755.083191 
	C1184.562134,744.823669 1180.930908,731.014954 1180.439209,715.497681 
	C1179.870850,697.564026 1187.018311,683.934998 1201.227295,673.628296 
	C1211.421021,666.234192 1223.013062,662.242859 1235.359375,660.440674 
	C1249.447754,658.384277 1263.203735,659.619690 1276.561523,664.923096 
	C1283.003784,667.480896 1286.259033,671.349976 1286.134888,678.772583 
	C1285.962402,689.076050 1287.017822,699.396057 1287.333618,709.715515 
	C1287.387451,711.473938 1286.370972,713.265137 1285.848877,715.041199 
	C1284.114258,714.353882 1282.111816,714.012390 1280.694458,712.915222 
	C1276.229736,709.458984 1272.230957,705.361816 1267.599243,702.169250 
	C1259.869507,696.841431 1251.172485,695.099854 1241.881226,697.005127 
	C1236.689087,698.069763 1232.115723,700.323303 1231.128296,706.012878 
	C1230.103149,711.918945 1230.520020,717.675659 1236.340088,721.556274 
	C1245.621094,727.744446 1254.848267,734.015137 1264.030029,740.349670 
	C1274.767090,747.757080 1283.946533,756.515869 1288.480713,769.651367 
z"/>
<path fill="#1E70EA" opacity="1.000000" stroke="none" 
	d="
M615.371216,724.654419 
	C624.733337,731.082031 633.991821,737.040894 642.824402,743.575500 
	C657.485291,754.421875 666.097656,768.527771 665.089478,787.463318 
	C664.366882,801.036743 658.383057,812.124329 648.763550,821.246582 
	C636.130066,833.227051 621.028564,840.294373 603.547424,841.170349 
	C590.070557,841.845703 576.557129,841.801880 563.559753,836.986084 
	C558.884888,835.253906 556.337463,832.896912 556.343079,827.315063 
	C556.354004,816.495789 555.430847,805.677734 555.030823,794.854126 
	C554.955200,792.808044 555.511108,790.738586 555.775635,788.679932 
	C557.758728,789.601318 560.020142,790.175232 561.677917,791.502808 
	C569.849854,798.047729 578.872070,802.547180 589.500610,802.298889 
	C594.211121,802.188843 599.181641,801.342773 603.511230,799.560486 
	C610.100708,796.847656 611.335510,789.974548 606.844177,784.305847 
	C605.521851,782.636841 603.749023,781.297546 602.076782,779.937378 
	C591.994995,771.736877 581.818420,763.651672 571.799438,755.375488 
	C563.123352,748.208679 557.919739,739.011658 555.921448,727.863892 
	C548.124329,684.366821 577.840332,666.911438 605.490356,661.205261 
	C620.984131,658.007812 636.279846,659.009949 651.125977,664.996582 
	C657.081299,667.398071 660.475647,670.800171 660.409485,677.948059 
	C660.311035,688.591675 661.458862,699.242554 661.838257,709.898926 
	C661.899109,711.607544 660.721008,713.360291 660.115601,715.092590 
	C658.396973,714.344238 656.308655,713.990295 655.020386,712.782776 
	C647.306213,705.551697 639.562561,698.384399 628.511963,696.865356 
	C625.097107,696.395996 621.540955,696.485474 618.095764,696.809998 
	C612.081116,697.376465 607.046265,699.694580 605.383057,706.196228 
	C603.738953,712.623047 606.225525,718.367004 612.182861,722.478516 
	C613.142578,723.140686 614.111511,723.789429 615.371216,724.654419 
z"/>
<path fill="#1E6FEA" opacity="1.000000" stroke="none" 
	d="
M1326.564209,666.656372 
	C1329.544312,665.450928 1332.158813,664.370972 1334.800293,663.361755 
	C1340.111938,661.332520 1342.278198,662.089478 1344.901489,667.151245 
	C1352.711670,682.221802 1360.451050,697.329041 1368.234985,712.413208 
	C1369.055664,714.003479 1369.988403,715.536011 1371.267212,717.799866 
	C1373.880249,713.011475 1376.126343,708.847656 1378.416626,704.708435 
	C1383.492676,695.535034 1388.686035,686.424683 1393.628174,677.180054 
	C1395.326172,674.003967 1397.509766,672.222839 1401.101807,671.397278 
	C1412.610107,668.752197 1424.015137,665.658325 1435.517578,662.986023 
	C1437.691895,662.480774 1440.130859,663.114929 1442.447632,663.223328 
	C1441.936646,665.561768 1441.921143,668.163940 1440.838501,670.198181 
	C1429.188354,692.087769 1417.372925,713.889343 1405.594116,735.710327 
	C1403.854980,738.932251 1402.360107,742.334717 1400.258179,745.303955 
	C1389.835205,760.027771 1385.575195,776.692627 1384.020996,794.361267 
	C1383.380371,801.643311 1381.906982,808.849121 1380.937012,816.106262 
	C1380.412354,820.030823 1378.702271,822.737366 1374.987061,824.596375 
	C1364.720215,829.733948 1354.619019,835.202698 1344.442139,840.521179 
	C1343.265503,841.136047 1342.050415,841.695862 1340.810181,842.167969 
	C1332.223877,845.436401 1329.026489,843.227783 1330.265259,834.309998 
	C1333.470947,811.233582 1337.018677,788.204712 1340.231567,765.129272 
	C1340.571045,762.689880 1340.167603,759.803467 1339.139893,757.570312 
	C1328.150391,733.689087 1316.984375,709.888977 1305.823486,686.086914 
	C1302.172607,678.300659 1302.777344,676.409180 1310.483398,673.182922 
	C1315.700317,670.998840 1320.966553,668.932739 1326.564209,666.656372 
z"/>
<path fill="#1E6FEA" opacity="1.000000" stroke="none" 
	d="
M945.830383,677.779358 
	C946.321289,669.591797 946.325317,669.608765 953.763367,667.837402 
	C965.898376,664.947266 978.018066,661.992371 990.163086,659.145081 
	C996.286438,657.709473 997.347168,658.588989 996.777771,664.948059 
	C993.363525,703.077515 989.862366,741.199158 986.428101,779.326843 
	C985.742554,786.938538 985.220398,794.564880 984.572998,802.819885 
	C986.543213,802.819885 988.129395,802.956604 989.685669,802.798645 
	C1004.257019,801.319214 1018.828186,799.835327 1033.389282,798.258850 
	C1044.050537,797.104797 1044.762573,797.907837 1041.392700,807.873962 
	C1039.155518,814.490479 1036.926147,821.109741 1034.702515,827.730835 
	C1032.226440,835.103760 1027.036743,838.697632 1019.330139,838.917969 
	C990.537048,839.741028 961.745972,840.636841 932.951294,841.398315 
	C926.486755,841.569336 925.793762,840.417236 927.931335,834.476624 
	C927.987671,834.320068 928.001587,834.140686 928.085815,834.002747 
	C936.020081,821.013855 936.802551,806.430908 937.785461,791.804871 
	C940.330444,753.935547 943.118103,716.082520 945.830383,677.779358 
z"/>
<path fill="#1E70EA" opacity="1.000000" stroke="none" 
	d="
M1051.809326,830.800293 
	C1058.990723,819.940857 1059.006714,807.837585 1059.839478,795.915955 
	C1062.600586,756.393616 1065.376221,716.872192 1068.139526,677.349976 
	C1068.680420,669.614685 1068.669800,669.628052 1076.146606,667.846191 
	C1088.119629,664.992859 1100.082397,662.097229 1112.059448,659.260986 
	C1118.696533,657.689392 1119.615845,658.271240 1119.052368,664.914307 
	C1116.619385,693.605042 1114.024170,722.282166 1111.478027,750.963318 
	C1110.035522,767.212158 1108.569946,783.458984 1107.132080,799.708252 
	C1107.048340,800.653625 1107.121216,801.612915 1107.121216,803.191528 
	C1116.452515,802.275696 1125.339722,801.405334 1134.226685,800.530823 
	C1142.839355,799.683350 1151.439941,798.670471 1160.068481,798.038025 
	C1165.924561,797.608704 1166.817993,798.890076 1165.032959,804.264954 
	C1162.412109,812.156128 1159.643433,819.998291 1157.016724,827.887573 
	C1154.611450,835.111816 1149.531128,838.657837 1142.063110,838.882263 
	C1113.104492,839.752991 1084.145874,840.629395 1055.184204,841.387085 
	C1048.771362,841.554871 1048.152832,840.449585 1050.367310,834.400513 
	C1050.767456,833.307739 1051.236328,832.240173 1051.809326,830.800293 
z"/>
<path fill="#1E70EA" opacity="1.000000" stroke="none" 
	d="
M886.376953,836.295166 
	C878.928406,838.361633 871.883179,840.352234 864.813110,842.250549 
	C862.895752,842.765381 860.916870,843.124207 858.942810,843.340149 
	C854.604065,843.814880 852.863281,841.762451 853.201172,837.454956 
	C854.321350,823.173889 855.340820,808.884827 856.391296,794.598328 
	C858.931946,760.045227 861.470459,725.491943 864.003784,690.938293 
	C864.393494,685.622375 864.777832,680.305725 865.114258,674.986206 
	C865.328674,671.595642 866.722168,669.665527 870.355530,668.853516 
	C883.347229,665.950134 896.259888,662.694458 909.211975,659.612183 
	C915.296875,658.164185 916.418274,659.216675 915.919678,665.946472 
	C914.234314,688.697510 912.617554,711.454285 910.783020,734.193420 
	C908.331848,764.574341 905.611755,794.933899 903.250061,825.321472 
	C902.915649,829.623962 901.592834,832.146667 897.311218,833.135925 
	C893.752869,833.957947 890.281067,835.154114 886.376953,836.295166 
z"/>
<path fill="#21252A" opacity="1.000000" stroke="none" 
	d="
M463.478027,775.563721 
	C465.187775,779.907166 467.209564,783.828552 468.104370,787.992188 
	C469.990112,796.766846 466.302490,802.735901 458.102753,806.268250 
	C455.912506,807.211792 453.843689,809.065491 452.412018,811.011169 
	C449.407043,815.094910 445.751068,817.441956 440.609467,817.179382 
	C435.692535,816.928284 432.360321,814.443420 429.771423,810.270203 
	C428.646881,808.457458 426.457275,806.886353 424.411926,806.155273 
	C420.699005,804.828186 416.732056,804.211853 413.116608,803.356873 
	C410.028870,811.707886 407.515717,820.010132 403.888885,827.793396 
	C401.402924,833.128357 397.933624,838.273804 393.901062,842.560608 
	C386.625641,850.295044 377.769928,850.039368 370.159546,842.559875 
	C362.955048,835.479492 359.104309,826.426941 355.881012,817.089233 
	C354.315369,812.553711 353.024750,807.923279 351.765106,803.839844 
	C342.261993,805.357300 333.123260,807.124817 323.902161,808.154480 
	C319.514069,808.644470 314.856628,808.263916 310.516327,807.350464 
	C297.603027,804.632568 292.853394,796.065247 297.206360,783.587952 
	C298.359497,780.282593 298.841522,777.819519 296.515442,774.578552 
	C293.720337,770.684082 294.143585,765.979736 296.711334,761.827454 
	C299.388306,757.498474 303.669891,754.562622 308.448944,756.056763 
	C314.675354,758.003479 317.657990,754.880127 321.060425,750.450745 
	C317.993195,747.153076 314.471924,744.080017 311.833801,740.377563 
	C306.839966,733.369324 301.337524,726.451782 297.878540,718.681030 
	C291.720123,704.846069 298.350250,694.712097 313.487274,693.004578 
	C324.429932,691.770203 335.062164,693.645203 345.610107,696.292847 
	C347.523163,696.773071 349.421387,697.312561 351.358032,697.833191 
	C353.618378,691.131042 355.253082,684.439270 358.109039,678.317200 
	C361.174194,671.746704 364.660614,665.106628 369.263214,659.579346 
	C376.897156,650.411743 386.439453,650.576538 394.681610,659.138062 
	C396.949829,661.494141 399.141937,662.925110 402.557800,663.481079 
	C410.634949,664.795654 415.753448,673.636475 411.747681,680.471802 
	C408.897430,685.335449 410.138275,689.154114 411.295135,693.526794 
	C411.631897,694.799683 412.070038,696.045776 412.545685,697.574036 
	C419.262848,696.199524 425.824860,694.223694 432.506073,693.658997 
	C439.891052,693.034912 447.566315,692.713074 454.790710,694.034058 
	C466.492981,696.173706 471.644958,704.924316 467.307281,715.962952 
	C464.144653,724.011230 458.886993,731.325684 453.963989,738.559326 
	C451.000824,742.913208 446.888672,746.485046 443.791779,749.864014 
	C450.363098,758.424744 456.821259,766.838135 463.478027,775.563721 
M367.123993,771.398621 
	C386.035126,781.553345 378.258331,781.538269 397.124298,771.497559 
	C397.270599,771.419678 397.394470,771.291382 397.546692,771.234009 
	C405.817841,768.116882 408.450317,762.222900 408.021332,753.460449 
	C406.955963,731.698059 410.656403,738.436523 392.409454,726.616394 
	C385.004761,721.819763 379.154449,722.130371 371.704834,726.685059 
	C356.312439,736.095947 356.466980,735.676819 356.301056,753.650391 
	C356.223633,762.033447 358.124207,768.134827 367.123993,771.398621 
M365.872498,814.548889 
	C368.738281,820.347046 371.069580,826.496582 374.595490,831.860840 
	C379.848236,839.852356 384.779510,839.901978 389.726532,831.834961 
	C393.598999,825.520203 396.574554,818.541199 399.126404,811.556824 
	C403.252045,800.265015 402.798401,800.514038 392.105164,795.412537 
	C385.761902,792.386230 380.114716,790.426514 373.632690,794.831116 
	C370.060181,797.258667 363.793701,798.028015 362.614441,801.054077 
	C361.307495,804.407837 364.417694,809.482971 365.872498,814.548889 
M334.177063,739.711365 
	C337.632477,737.113892 341.151154,734.594421 344.506500,731.873596 
	C345.574615,731.007385 346.747955,729.692261 346.949310,728.434631 
	C347.894867,722.529175 348.609955,716.580688 349.164246,710.625000 
	C349.252594,709.675415 348.304138,707.940857 347.497406,707.700134 
	C336.144745,704.311340 324.652771,701.416138 312.691223,703.658875 
	C306.062134,704.901733 304.449432,707.789978 306.834808,713.977173 
	C311.439514,725.920898 320.230316,734.697327 329.196228,743.531067 
	C330.979584,742.156555 332.288788,741.147522 334.177063,739.711365 
M440.129059,738.655273 
	C445.471375,731.489502 451.552582,724.746948 455.962646,717.047302 
	C461.088379,708.098267 458.153473,702.938171 448.023804,703.271851 
	C437.834167,703.607666 427.691681,705.782043 417.580322,707.462341 
	C416.546326,707.634094 415.074371,709.993042 415.159149,711.245483 
	C415.540253,716.875183 416.352173,722.480042 417.155518,728.072754 
	C417.305939,729.119812 417.878296,730.391846 418.679840,731.013611 
	C424.035645,735.168457 429.506378,739.174988 436.317841,744.258118 
	C437.435303,742.528870 438.526428,740.840393 440.129059,738.655273 
M320.499084,766.469788 
	C320.375977,772.293274 318.803497,777.302917 313.050049,780.062073 
	C308.476959,782.255066 305.035034,787.994446 306.094421,792.383301 
	C307.364197,797.643433 312.319397,798.093872 316.142426,797.775818 
	C326.353638,796.926392 336.503723,795.244080 346.626495,793.579285 
	C347.657898,793.409607 349.133728,791.062073 349.048096,789.818542 
	C348.660248,784.184509 347.838257,778.576538 347.040039,772.978088 
	C346.889801,771.924438 346.401703,770.616150 345.617706,770.004517 
	C340.270691,765.832825 334.802856,761.815979 329.359955,757.738647 
	C326.417145,760.573486 323.682770,763.207581 320.499084,766.469788 
M448.534363,771.982117 
	C444.115112,767.118164 439.695831,762.254211 435.229706,757.338623 
	C431.999207,759.878845 429.746063,762.273743 426.991333,763.699402 
	C418.852478,767.911499 416.112366,774.512390 415.810638,783.429871 
	C415.473999,793.379395 414.814941,793.502625 424.908386,795.521729 
	C427.386353,796.017456 430.693329,796.122559 432.632141,794.874207 
	C439.112671,790.701782 444.068695,790.698547 450.445892,795.410645 
	C451.657684,796.306030 454.179230,796.476685 455.593140,795.848633 
	C459.410248,794.153198 458.920746,790.410950 457.608154,787.637939 
	C455.135956,782.415405 451.898590,777.555054 448.534363,771.982117 
M364.746124,690.277527 
	C364.448517,691.227478 364.127502,692.170776 363.857025,693.128357 
	C361.599457,701.121155 362.180267,700.177124 369.138214,704.433472 
	C379.015381,710.475464 387.768494,708.884583 396.786407,703.573853 
	C398.707336,702.442688 402.036682,700.401428 401.813080,699.498657 
	C400.815857,695.472412 401.910004,690.199890 396.544128,688.109192 
	C388.698608,685.052429 385.997650,679.208557 388.192780,670.992310 
	C388.573395,669.567627 388.215210,667.373718 387.304718,666.277039 
	C383.771851,662.021851 379.727936,661.721069 376.650604,666.606567 
	C372.100616,673.829956 368.798859,681.839600 364.746124,690.277527 
M358.445251,778.912415 
	C358.769714,782.247986 359.094208,785.583618 359.482483,789.574829 
	C363.388702,787.991333 366.354004,786.789185 370.426483,785.138306 
	C365.985565,782.664185 362.563599,780.757751 358.445251,778.912415 
M359.389435,713.111755 
	C358.937653,716.087952 358.485840,719.064209 357.878845,723.062927 
	C362.416138,720.399658 365.887024,718.362427 370.831726,715.460022 
	C366.183350,714.186340 362.996216,713.313049 359.389435,713.111755 
M422.046906,746.331360 
	C420.896088,745.603394 419.745300,744.875366 418.373291,744.007446 
	C418.373291,748.627441 418.373291,752.608154 418.373291,757.502319 
	C421.667358,754.924927 424.287598,752.874756 427.226654,750.575134 
	C425.373718,749.054260 423.990295,747.918762 422.046906,746.331360 
M400.189209,781.622986 
	C398.433685,782.641418 396.678192,783.659912 394.029297,785.196655 
	C398.134338,786.833008 401.100586,788.015381 404.676880,789.440979 
	C405.224213,785.642822 405.682037,782.465942 406.279388,778.320618 
	C403.661072,779.707642 402.235901,780.462646 400.189209,781.622986 
M402.124939,712.539917 
	C399.777863,713.514343 397.430786,714.488770 394.066803,715.885376 
	C398.492371,718.376160 401.931885,720.311951 406.568634,722.921570 
	C404.912170,718.499390 407.523621,714.282593 402.124939,712.539917 
M337.830292,750.503662 
	C340.240479,752.641113 342.650665,754.778564 345.684814,757.469360 
	C345.684814,752.390747 345.684814,748.453979 345.684814,743.661194 
	C342.712860,746.093872 340.424011,747.967346 337.830292,750.503662 
z"/>
<path fill="#1E6FE9" opacity="1.000000" stroke="none" 
	d="
M366.806549,771.215881 
	C358.124207,768.134827 356.223633,762.033447 356.301056,753.650391 
	C356.466980,735.676819 356.312439,736.095947 371.704834,726.685059 
	C379.154449,722.130371 385.004761,721.819763 392.409454,726.616394 
	C410.656403,738.436523 406.955963,731.698059 408.021332,753.460449 
	C408.450317,762.222900 405.817841,768.116882 397.546692,771.234009 
	C397.394470,771.291382 397.270599,771.419678 397.124298,771.497559 
	C378.258331,781.538269 386.035126,781.553345 366.806549,771.215881 
z"/>
<path fill="#1E6FE8" opacity="1.000000" stroke="none" 
	d="
M365.738464,814.178711 
	C364.417694,809.482971 361.307495,804.407837 362.614441,801.054077 
	C363.793701,798.028015 370.060181,797.258667 373.632690,794.831116 
	C380.114716,790.426514 385.761902,792.386230 392.105164,795.412537 
	C402.798401,800.514038 403.252045,800.265015 399.126404,811.556824 
	C396.574554,818.541199 393.598999,825.520203 389.726532,831.834961 
	C384.779510,839.901978 379.848236,839.852356 374.595490,831.860840 
	C371.069580,826.496582 368.738281,820.347046 365.738464,814.178711 
z"/>
<path fill="#1E6FE9" opacity="1.000000" stroke="none" 
	d="
M333.887512,739.924927 
	C332.288788,741.147522 330.979584,742.156555 329.196228,743.531067 
	C320.230316,734.697327 311.439514,725.920898 306.834808,713.977173 
	C304.449432,707.789978 306.062134,704.901733 312.691223,703.658875 
	C324.652771,701.416138 336.144745,704.311340 347.497406,707.700134 
	C348.304138,707.940857 349.252594,709.675415 349.164246,710.625000 
	C348.609955,716.580688 347.894867,722.529175 346.949310,728.434631 
	C346.747955,729.692261 345.574615,731.007385 344.506500,731.873596 
	C341.151154,734.594421 337.632477,737.113892 333.887512,739.924927 
z"/>
<path fill="#1E6FE9" opacity="1.000000" stroke="none" 
	d="
M439.873291,738.903625 
	C438.526428,740.840393 437.435303,742.528870 436.317841,744.258118 
	C429.506378,739.174988 424.035645,735.168457 418.679840,731.013611 
	C417.878296,730.391846 417.305939,729.119812 417.155518,728.072754 
	C416.352173,722.480042 415.540253,716.875183 415.159149,711.245483 
	C415.074371,709.993042 416.546326,707.634094 417.580322,707.462341 
	C427.691681,705.782043 437.834167,703.607666 448.023804,703.271851 
	C458.153473,702.938171 461.088379,708.098267 455.962646,717.047302 
	C451.552582,724.746948 445.471375,731.489502 439.873291,738.903625 
z"/>
<path fill="#1E6FE9" opacity="1.000000" stroke="none" 
	d="
M320.723755,766.155762 
	C323.682770,763.207581 326.417145,760.573486 329.359955,757.738647 
	C334.802856,761.815979 340.270691,765.832825 345.617706,770.004517 
	C346.401703,770.616150 346.889801,771.924438 347.040039,772.978088 
	C347.838257,778.576538 348.660248,784.184509 349.048096,789.818542 
	C349.133728,791.062073 347.657898,793.409607 346.626495,793.579285 
	C336.503723,795.244080 326.353638,796.926392 316.142426,797.775818 
	C312.319397,798.093872 307.364197,797.643433 306.094421,792.383301 
	C305.035034,787.994446 308.476959,782.255066 313.050049,780.062073 
	C318.803497,777.302917 320.375977,772.293274 320.723755,766.155762 
z"/>
<path fill="#1E6FE8" opacity="1.000000" stroke="none" 
	d="
M448.756836,772.263123 
	C451.898590,777.555054 455.135956,782.415405 457.608154,787.637939 
	C458.920746,790.410950 459.410248,794.153198 455.593140,795.848633 
	C454.179230,796.476685 451.657684,796.306030 450.445892,795.410645 
	C444.068695,790.698547 439.112671,790.701782 432.632141,794.874207 
	C430.693329,796.122559 427.386353,796.017456 424.908386,795.521729 
	C414.814941,793.502625 415.473999,793.379395 415.810638,783.429871 
	C416.112366,774.512390 418.852478,767.911499 426.991333,763.699402 
	C429.746063,762.273743 431.999207,759.878845 435.229706,757.338623 
	C439.695831,762.254211 444.115112,767.118164 448.756836,772.263123 
z"/>
<path fill="#1E6FE8" opacity="1.000000" stroke="none" 
	d="
M364.855896,689.895996 
	C368.798859,681.839600 372.100616,673.829956 376.650604,666.606567 
	C379.727936,661.721069 383.771851,662.021851 387.304718,666.277039 
	C388.215210,667.373718 388.573395,669.567627 388.192780,670.992310 
	C385.997650,679.208557 388.698608,685.052429 396.544128,688.109192 
	C401.910004,690.199890 400.815857,695.472412 401.813080,699.498657 
	C402.036682,700.401428 398.707336,702.442688 396.786407,703.573853 
	C387.768494,708.884583 379.015381,710.475464 369.138214,704.433472 
	C362.180267,700.177124 361.599457,701.121155 363.857025,693.128357 
	C364.127502,692.170776 364.448517,691.227478 364.855896,689.895996 
z"/>
<path fill="#1E6BDD" opacity="1.000000" stroke="none" 
	d="
M358.793457,778.881897 
	C362.563599,780.757751 365.985565,782.664185 370.426483,785.138306 
	C366.354004,786.789185 363.388702,787.991333 359.482483,789.574829 
	C359.094208,785.583618 358.769714,782.247986 358.793457,778.881897 
z"/>
<path fill="#1E6BDD" opacity="1.000000" stroke="none" 
	d="
M359.599274,712.775757 
	C362.996216,713.313049 366.183350,714.186340 370.831726,715.460022 
	C365.887024,718.362427 362.416138,720.399658 357.878845,723.062927 
	C358.485840,719.064209 358.937653,716.087952 359.599274,712.775757 
z"/>
<path fill="#1E6BDD" opacity="1.000000" stroke="none" 
	d="
M422.326874,746.557312 
	C423.990295,747.918762 425.373718,749.054260 427.226654,750.575134 
	C424.287598,752.874756 421.667358,754.924927 418.373291,757.502319 
	C418.373291,752.608154 418.373291,748.627441 418.373291,744.007446 
	C419.745300,744.875366 420.896088,745.603394 422.326874,746.557312 
z"/>
<path fill="#1E6BDD" opacity="1.000000" stroke="none" 
	d="
M400.499969,781.420288 
	C402.235901,780.462646 403.661072,779.707642 406.279388,778.320618 
	C405.682037,782.465942 405.224213,785.642822 404.676880,789.440979 
	C401.100586,788.015381 398.134338,786.833008 394.029297,785.196655 
	C396.678192,783.659912 398.433685,782.641418 400.499969,781.420288 
z"/>
<path fill="#1E6BDD" opacity="1.000000" stroke="none" 
	d="
M402.487061,712.387085 
	C407.523621,714.282593 404.912170,718.499390 406.568634,722.921570 
	C401.931885,720.311951 398.492371,718.376160 394.066803,715.885376 
	C397.430786,714.488770 399.777863,713.514343 402.487061,712.387085 
z"/>
<path fill="#1E6FE8" opacity="1.000000" stroke="none" 
	d="
M337.982727,750.172241 
	C340.424011,747.967346 342.712860,746.093872 345.684814,743.661194 
	C345.684814,748.453979 345.684814,752.390747 345.684814,757.469360 
	C342.650665,754.778564 340.240479,752.641113 337.982727,750.172241 
z"/>
</svg>